<?xml version="1.0" standalone="no"?><!DOCTYPE svg PUBLIC "-//W3C//DTD SVG 1.1//EN" "http://www.w3.org/Graphics/SVG/1.1/DTD/svg11.dtd"><svg t="1517717628398" class="icon" style="" viewBox="0 0 1024 1024" version="1.1" xmlns="http://www.w3.org/2000/svg" p-id="5847" xmlns:xlink="http://www.w3.org/1999/xlink" width="200" height="200"><defs><style type="text/css"></style></defs><path d="M225.152 275.968L364.074667 218.026667c16.512 62.293333 41.6 121.045333 73.941333 175.018666-31.104 37.12-59.306667 72.192-84.650667 105.130667a815.146667 815.146667 0 0 0 215.210667 215.168 3282.346667 3282.346667 0 0 0 105.386667-84.48 678.698667 678.698667 0 0 0 174.634666 73.685333l-66.133333 158.72a847.445333 847.445333 0 0 1-130.645333-50.517333A855.594667 855.594667 0 0 1 205.354667 284.16l19.797333-8.234667zM758.186667 808.746667l32.896-78.976a721.450667 721.450667 0 0 1-112.597334-49.237334 3264.426667 3264.426667 0 0 1-71.68 57.301334c47.786667 28.8 98.517333 52.565333 151.381334 70.912zM386.304 388.565333A721.450667 721.450667 0 0 1 336.896 275.626667l-78.933333 32.896c18.346667 52.906667 42.154667 103.68 70.954666 151.594666 17.834667-22.912 36.949333-46.762667 57.386667-71.552z" fill="#444444" p-id="5848"></path></svg>